<svg xmlns="http://www.w3.org/2000/svg" width="240" height="324" fill="none"><path fill="#fff" fill-rule="evenodd" d="M51.502 284.881c12.936.362 25.156.762 38.068 0 20.661-1.278 81.294 1.026 94.622 0 1.006-.077 4.465 1.026 4.537 0 .586-7.145.966-79.435-.775-84.409-1.741-4.974-10.332-28.885-21.28-40.034-3.053-3.012-7.698-4.179-10.264-7.66-2.213-3.796-2.041-6.024-4.226-8.021-.948-.866-3.184-1.217-4.846-2.42-1.67-1.661-.088-5.318-.774-7.631-1.414-5.775-6.621-9.48-12.312-10.353-7.91-1.894-16.261-.104-20.05 6.112-1.411 2.314-.66 5.127-2.395 8.834.124 2.802-3.146 3.479-5.1 4.589l-3.881 3.924c-11.958 6.731-26.025 10.366-36.502 19.408-8.908 9.04-17.769 19.489-21.721 31.72-.818 3.333-1.085 6.777-1.424 10.183-.968 9.952-3.664 19.611-5.984 29.305-2.645 12.214-5.11 25.179-1.545 37.509 1.027 2.609 13.512 8.822 15.852 8.944Z" clip-rule="evenodd"/><path fill="#000" fill-rule="evenodd" d="M113.516 131.461c.104-.339.55-.244.584.078.335 3.187-.087 6.518-.493 9.684-.194 1.528-.306 3.117-.602 4.624-.038.161-.074.323-.108.484.097.173.385.368.522.501l.596.58 1.196 1.157 7.016 6.8 3.433 3.328c1.177 1.141 2.514 2.234 3.547 3.507.56.691.687 1.538.135 2.278-.272.365-.762.632-1.259.687.194.27.344.577.44.917.194.693-.507 1.545-1.253 1.255-.847-.325-1.547-.908-2.409-1.187a5.744 5.744 0 0 0-2.719-.186 8.117 8.117 0 0 0-1.215.304c4.228 1.947 8.802 3.065 13.467 3.225.95.032 1.899.019 2.843-.044a26.58 26.58 0 0 0 4.718-.733 28.787 28.787 0 0 0 3.596-1.157 18.095 18.095 0 0 0 1.692-.765l.048-.028c.125-.078 2.42-1.38 2.46-1.576.04-.195.04-.264-.035-.434-.074-.17-.282-.288-.282-.288-.709-.303-1.444-.585-2.218-.59-1.784-.011-3.729 1.308-5.204 2.206-1.62.987-3.11 2.141-4.669 3.211a.2.2 0 0 1-.114.036c-.165 0-.317-.204-.211-.362 1.117-1.646 2.625-3.016 4.203-4.213l.636-.477c1.445-1.078 3.135-2.272 4.892-2.532 2.152-.317 4.401 1.025 6.321 1.811l3.401 1.393c.606.247 1.266.459 1.876.74l-1.425-4.461c-.712-2.231-1.423-4.463-2.126-6.696l-.136-.438c-.701-2.266-1.344-4.624-2.511-6.695-.279-.497-.598-.964-.913-1.435-.328-.488-.45-1.027-.862-1.463-.815-.864-1.984-1.372-3.099-1.703-.273-.081-.192-.44.063-.467 1.145-.121 2.237.146 3.271.629l.43.205c.978.463 1.932.894 2.658 1.725 1.656 1.898 2.517 4.288 3.307 6.646l.211.633c.296-.097 2.305.516 2.556.661 7.532 3.186 13.333 9.116 17.576 16.065 4.648 7.615 7.178 16.316 9.268 24.927a417.1 417.1 0 0 1 1.854 7.994c-2.64 1.016-5.445 1.548-7.916 2.979-.941.545-.091 2.007.853 1.46 2.314-1.34 4.95-1.836 7.428-2.777a345.952 345.952 0 0 1 3.538 18.648c3.074 19.165 5.015 38.643 4.893 58.07a2.77 2.77 0 0 1-.364 1.321.729.729 0 0 0 .307-.245c.779-1.224 2.734-.088 1.95 1.142l-.115.178c-.588.907-1.137 1.6-2.171 2.112-1.042.516-2.17.603-3.319.633-3.906.103-7.815.17-11.726.218-.536-4.185-.754-8.409-1.493-12.569-.19-1.069-1.819-.616-1.629.45.713 4.017.941 8.095 1.439 12.139-8.36.09-16.724.091-25.078.115-11.32.033-22.64.009-33.96.003l-4.852-.002c-13.077 0-26.155-.042-39.232-.128l-3.11-.022c-1.237-7.296-2.08-14.655-2.095-22.069-.002-1.088-1.692-1.09-1.69 0 .016 7.406.848 14.765 2.074 22.059-3.096-.013-6.191-.002-9.288.108l-1.576.056c-3.153.108-6.313.174-9.46-.077-3.495-.281-7.029-.924-10.162-2.57A14.325 14.325 0 0 1 38 280.245c1.079-.628 2.174-1.231 3.22-1.915.906-.594.06-2.058-.854-1.46-1.126.737-2.31 1.38-3.47 2.062a15.654 15.654 0 0 1-2.054-3.709c-.826-2.12-1.145-4.4-1.422-6.645-.327-2.644-.462-5.309-.462-7.972 0-5.601.59-11.184 1.411-16.718.786-5.3 1.825-10.559 2.924-15.8l.15-.715c1.084-5.152 2.117-10.32 3.36-15.437 1.148-4.731 2.475-9.441 4.057-14.059 1.408.871 2.882 1.633 4.268 2.54.913.598 1.76-.865.853-1.459-1.479-.969-3.056-1.773-4.549-2.719 1.77-4.945 3.846-9.775 6.335-14.401 4.986-9.263 11.704-17.551 20.31-23.667a59.828 59.828 0 0 1 13.996-7.387c5.06-1.86 10.303-2.878 15.665-3.297.153-.012.239.13.233.261l-.002.024.211.034c.078-.53.239-1.044.545-1.515.697-1.074 2.019-1.763 3.076-2.422l.25-.156c1.257-.779 2.583-1.547 4.045-1.82.051-.009.082.044.048.084-.964 1.106-2.196 1.951-3.326 2.886l-.259.217c-.937.77-2.242 1.645-2.277 2.933-.04 1.518.27 3.097.382 4.61.112 1.509.19 3.016.23 4.529a140.699 140.699 0 0 1-.509 16.245l2.121-1.421c3.301-2.21 6.613-4.415 9.993-6.484 2.046-1.253 4.344-2.325 6.795-2.276a8.818 8.818 0 0 1 2.206.323c-.801-.758-1.568-1.566-2.352-2.329l-3.872-3.77-3.722-3.627-3.724-3.627c-1.153-1.126-2.505-2.164-2.383-3.939.1-1.416.82-2.826 1.312-4.191.07-.197.133-.391.192-.584.994-3.301 1.557-6.723 2.565-10.011Zm48.104 141.645c-.77-.77-1.965.425-1.195 1.196l.407.405c.681.679 1.355 1.379 1.826 2.218l.069.127c.507.963 1.966.11 1.459-.853-.627-1.19-1.625-2.151-2.566-3.093Zm-32.986-.217a18.967 18.967 0 0 0-7.264 0c-1.067.204-.615 1.834.45 1.63a16.662 16.662 0 0 1 6.365 0c1.063.203 1.518-1.426.449-1.63Zm-33.1-17.043c-1.054-.268-1.504 1.363-.448 1.63l.52.13c1.766.437 3.448.762 5.283.357 1.048-.232.624-1.822-.408-1.639l-.041.008c-1.698.376-3.262-.07-4.905-.486Zm58.785-10.983c-.781-.759-1.977.436-1.195 1.196.975.949 2.125 1.67 3.518 1.708 1.071.03 1.087-1.61.048-1.688l-.048-.003c-.934-.026-1.678-.585-2.323-1.213Zm-99.47-4.516c.973-.486.118-1.945-.853-1.459l-5.841 2.921c-.973.487-.118 1.946.853 1.46l5.84-2.922Zm115.422.373c-1.088-.031-1.087 1.66 0 1.691 1.022.028 2.07.416 2.981.858.974.473 1.832-.984.853-1.46-1.191-.578-2.498-1.052-3.834-1.089Zm-54.577-8.164c.894-.608.05-2.074-.853-1.46-1.232.838-2.349 1.827-3.561 2.69l-.333.232c-.895.608-.05 2.074.853 1.46 1.344-.914 2.55-2.008 3.894-2.922Zm62.852-12.288c-1.088-.001-1.089 1.69 0 1.691l.206-.001c.898-.005 1.844-.03 2.679.329l.096.043c.978.461 1.837-.996.853-1.46-1.224-.576-2.504-.602-3.834-.602Zm-93.862-1.208.142-.053c1.016-.365.578-2-.45-1.63-1.548.556-2.752 1.607-4.095 2.519-.895.608-.05 2.074.853 1.461 1.157-.787 2.234-1.782 3.55-2.297Zm63.395-4.399.227-.122c.968-.498.114-1.957-.852-1.46-.768.395-1.454.92-2.207 1.339l-.227.122c-.968.498-.114 1.957.853 1.46.767-.395 1.453-.92 2.206-1.339Zm-25.712-16.377-.174-.168c-.778-.762-1.974.433-1.195 1.196 1.945 1.904 4.244 3.35 6.563 4.748l.422.253c.935.561 1.786-.9.853-1.46l-.619-.372c-2.062-1.244-4.1-2.529-5.85-4.197Zm-46.771-1.578c.655-.852-.77-1.685-1.436-.883l-.023.029c-.683.886-1.492 1.688-2.338 2.42l-.16.137c-.503.428-1.42 1.347-2.127 1.407-1.076.092-1.086 1.783 0 1.691 1.095-.093 2.037-.864 2.864-1.525a19.077 19.077 0 0 0 3.22-3.276Zm89.918-6.16c.785-.738-.375-1.912-1.167-1.22l-.028.025c-1.467 1.379-3.579 1.749-5.468 2.217-1.055.262-.608 1.892.449 1.631l.861-.213c1.931-.482 3.868-1.044 5.353-2.44Zm-33.472-10.665c-1.055-.268-1.505 1.363-.45 1.631 1.793.455 3.491 1.044 5.153 1.862.972.479 1.83-.979.853-1.46a28.252 28.252 0 0 0-5.556-2.033Zm17.265-35.642c-.025-.076.055-.163.133-.136 1.897.708.889 3.193.299 4.681l-.106.271c-.924 2.385-2.214 4.705-3.621 6.84a57.471 57.471 0 0 1-4.879 6.38 53.51 53.51 0 0 1-2.388 2.54l-.31.307c-.832.818-1.905 2.255-3.196 2.097-1.39-.167-2.166-1.653-1.152-2.781.717-.799 1.71-1.436 2.51-2.163a53.953 53.953 0 0 0 2.314-2.223 53.188 53.188 0 0 0 4.316-4.965c1.285-1.686 2.515-3.419 3.634-5.22l.222-.361c.851-1.402 2.816-3.462 2.224-5.267Zm-67.2 17.711c-.9-.616-1.746.848-.853 1.459 1.643 1.124 3.09 2.485 4.868 3.409.952.495 1.8-.923.887-1.441l-.034-.019c-1.777-.924-3.225-2.286-4.868-3.408Z" clip-rule="evenodd"/><path fill="#fff" fill-rule="evenodd" d="M139.312 145.72c-4.689.027-8.675-1.304-11.716-3.506-3.795-1.354-8.372-3.442-11.152-5.633-1.085.276-2.382-.876-3.212-1.484-5.16-3.855-9.211-9.498-10.411-15.15-1.853 2.34-4.49 2.437-7.015 1.274-5.294-3.003-5.096-9.328-3.19-14.053-4.007-8.995-6.785-32.739-.668-42.322 1.251-1.434 3.088-2.291 4.41-3.762 1.176-1.284 2.295-2.597 3.663-3.614 4.176-3.18 11.368-4.872 15.872-5.668 18.799-4.066 33.243 3.242 50.271 9.406-.98 2.452-2.335 4.688-3.889 6.773 4.227 1.578 2.286 5.128-.994 6.927l-1.953-.95c3.044 10.895 10.049 37.986 7.027 46.686-2.411 13.573-12.988 25.174-27.043 25.076" clip-rule="evenodd"/><path fill="#000" fill-rule="evenodd" d="M142.028 146.888c-6.089.625-13.322-.814-17.381-5.763a.763.763 0 0 1-.178-.477.79.79 0 0 1 .161-.49.724.724 0 0 1 .945-.183l.373.207c2.773 1.532 5.651 2.838 8.793 3.397 3.235.576 6.528.512 9.734-.219 5.84-1.331 10.566-4.727 14.045-9.204 3.881-4.996 6.212-11.338 6.807-17.681.72-7.686-.951-15.326-2.679-22.769-1.815-7.82-3.8-15.6-6.105-23.29a1.655 1.655 0 0 1-.069-.648c-.68-.266-1.403-.192-2.124.051-1.316.444-2.627 1.447-3.72 2.274-.396.3-.765.579-1.096.805-1.356.928-2.838 1.596-4.495 1.701-1.724.11-3.414-.427-4.98-1.097-.795-.341-1.577-.694-2.357-1.047-2.219-1.002-4.412-1.995-6.809-2.64a36.619 36.619 0 0 0-9.853-1.26c-5.936.055-11.89 1.583-15.527 6.605-1.474 2.035-2.435 4.373-1.686 6.883.408 1.366 1.177 2.606 2.017 3.747l.288.388c.46.626.861 1.25.981 1.913.101.556.022 1.145-.375 1.79-.249.405-.567.77-.887 1.132-.231.262-.462.523-.661.804a10.304 10.304 0 0 0-1.034 1.815c-.546 1.246-.777 2.587-.825 3.94-.059 1.632.171 3.228.398 4.827.161 1.133.322 2.268.387 3.416a.667.667 0 0 1-.135.461.655.655 0 0 1-.433.244.738.738 0 0 1-.163.003c.027.111.051.221.072.333a5.923 5.923 0 0 0-.351-.412l-.024-.013a.73.73 0 0 1-.303-.314 6.719 6.719 0 0 0-.556-.463c-1.013-.756-2.195-1.204-3.382-1.219-1.143-.014-2.29.375-3.171 1.198-1.753 1.636-2.266 4.305-2.284 6.597-.019 2.34.523 5.148 2.562 6.6.818.583 1.817.933 2.823.943.834.009 1.633-.287 2.419-.568.242-.087.483-.173.724-.251.273-.089.523-.084.74-.019.244.074.452.225.607.427a1.472 1.472 0 0 1 .175 1.477 4.1 4.1 0 0 1-.085.176l.448.738c1.717 2.817 3.465 5.583 5.756 8.005 1.315 1.39 2.709 2.702 4.239 3.85l.22.164c.132.097.278.216.435.344.446.365.98.855 1.479.874.148.006.278-.013.395-.028.284-.038.523-.049.757.047.189.077.384.221.585.517.136.201.206.453.206.708 0 .257-.071.513-.197.716-.259.42-.574.68-.915.828-.38.165-.8.19-1.237.109-1.076-.201-2.267-1.093-3.024-1.674l-.147-.113c-1.679-1.281-3.271-2.699-4.67-4.285-2.383-2.7-4.523-5.882-5.622-9.359-.775.509-1.732.751-2.732.789-1.458.055-3.001-.32-4.139-.86-2.506-1.188-4.028-3.437-4.741-6.023-.829-3.003-.56-6.455.49-9.153.03-.078.062-.156.094-.235-3.228-8.183-4.221-17.27-3.945-26.002.13-4.088.408-8.377 1.372-12.363.432-1.787 1.183-3.489 2.381-4.895.684-.803 1.522-1.427 2.365-2.05.73-.54 1.462-1.077 2.078-1.75l.291-.32.19-.209c1.063-1.173 2.1-2.312 3.39-3.274 1.498-1.116 3.151-1.99 4.868-2.714 3.7-1.562 7.682-2.499 11.62-3.223 8.522-1.568 17.27-1.645 25.687.558 3.914 1.024 7.712 2.426 11.503 3.826l1.056.39c2.947 1.085 5.895 2.166 8.843 3.246l4.11 1.508c.297.109.588.344.754.636.162.285.21.617.079.948a29.555 29.555 0 0 1-3.192 5.996c.449.305.83.711 1.119 1.187.366.6.582 1.312.597 2.067.049 2.528-2.251 4.242-4.159 5.481a1.44 1.44 0 0 1-.524.215c1.849 7.072 3.619 14.167 5.122 21.318l.104.496c1.549 7.484 2.548 15.122 1.083 22.706-1.261 6.53-4.192 12.833-8.771 17.698-4.487 4.768-10.509 7.769-17.024 8.438Zm-40.093-43.054c-.797-2.531-1.219-5.285-.914-7.85a12.429 12.429 0 0 1 1.466-4.588 14.253 14.253 0 0 1 1.604-2.277l.207-.239c.105-.121.21-.233.242-.374.019-.081 0-.17-.05-.277-.11-.236-.314-.463-.505-.685a7.786 7.786 0 0 1-.339-.415c-1.747-2.366-3.05-5.183-2.627-8.183.413-2.928 2.331-5.657 4.373-7.713 4.496-4.529 11.466-5.57 17.572-5.32 3.555.146 7.104.772 10.489 1.867a40.306 40.306 0 0 1 4.887 1.951l.351.169.568.278c1.24.608 2.485 1.222 3.83 1.553 2.629.645 4.411-.715 6.285-2.086.642-.47 1.294-.946 1.987-1.364l.143-.085c1.25-.725 2.746-1.213 4.182-1.19 1.248.018 2.452.417 3.432 1.359.201.193.317.404.371.614.109.153.196.334.253.548.352 1.318.701 2.637 1.049 3.956l.285-.183c.844-.549 1.761-1.175 2.176-2.093.159-.353.137-.94-.064-1.373a.863.863 0 0 0-.292-.37.522.522 0 0 0-.336-.079 1.651 1.651 0 0 1-.858-.11 1.422 1.422 0 0 1-.661-.559 1.276 1.276 0 0 1-.183-.832c.031-.257.142-.525.361-.777a23.385 23.385 0 0 0 3.573-5.478l-6.094-2.256a3841.22 3841.22 0 0 0-6.521-2.407l-1.191-.437c-3.953-1.45-7.93-2.869-12.041-3.803-8.172-1.856-16.693-1.42-24.841.328l-.493.106c-3.419.746-6.885 1.648-10.023 3.217-1.541.77-3.005 1.706-4.263 2.89-.555.522-1.057 1.094-1.56 1.665-.703.8-1.408 1.599-2.245 2.273l-.777.622c-1.156.932-2.198 1.84-2.85 3.284-.682 1.51-1.008 3.18-1.273 4.805-.67 4.096-.934 8.257-.909 12.406.043 6.965 1.1 13.79 2.437 20.589 1.072-1.535 2.579-2.725 4.512-2.979a6.118 6.118 0 0 1 5.275 1.902Zm-2.025 8.271c-1.411-.547-2.894-.726-4.387-.465a.63.63 0 0 1-.431-.078.683.683 0 0 1-.282-.32.591.591 0 0 1 .298-.78c1.617-.772 3.415-1.113 5.199-.87l.176.025c.912.135 2.195.42 3.157.981.756.44 1.309 1.047 1.446 1.84.072.414-.03.845-.269 1.158-.23.302-.582.504-1.037.491-.804-.023-1.28-.363-1.852-.803l-.215-.163a7.63 7.63 0 0 0-1.803-1.016Z" clip-rule="evenodd"/><path fill="#000" fill-rule="evenodd" d="M143.152 128.274a8.601 8.601 0 0 1-3.614-2.781 1.671 1.671 0 0 1-.338-1.297c.076-.467.352-.889.728-1.173.377-.284.849-.424 1.305-.353.397.062.791.279 1.104.73l.065.09a5.695 5.695 0 0 0 2.086 1.751 4.7 4.7 0 0 0 2.582.454c1.738-.196 2.935-1.136 4.208-2.413.158-.161.316-.327.474-.496a.746.746 0 0 1 .394-.303.864.864 0 0 1 .97.332c.097.143.153.32.135.524-.117 1.323-.808 2.503-1.79 3.43-1.091 1.03-2.537 1.742-3.898 1.992-1.499.275-3.027.078-4.411-.487Zm5.119-20.408c1.595.971 4.026 3.233 2.31 5.638-2.021 2.12-4.929-.311-6.362-1.411-1.329-.852-2.823 1.34-1.59 2.335 10.358 7.671 14.561-6.308 6.449-7.702-.894-.154-1.225.84-.807 1.14Zm-18.56-8.923c.176-2.189 3.508-2.686 3.84-.52.296 1.94-.053 3.723-.927 5.47-.834 1.668-2.932.89-3.091-.63-.213-2.037.068-2.958.178-4.32Zm25.365-.969c.465-.609 1.136-1.024 1.939-.79 2.511.735 1.771 4.301.889 6.037-.479.942-2.028 1.181-2.728.351-1.14-1.353-1.687-4.056-.236-5.39.039-.068.083-.138.136-.208Zm-22.487-8.608.397-.07c1.227-.212 2.752-.416 3.62.57.461.524.619 1.497 0 1.998-1.088.88-2.292.54-3.596.614a14.3 14.3 0 0 0-3.143.536c-2.272.65-4.123 1.835-6.063 3.137-.254.17-.514-.155-.393-.393 1.12-2.195 3.29-3.997 5.464-5.096 1.161-.587 2.43-1.073 3.714-1.296Zm20.198-.983.304.062c3.304.69 7.596 2.07 9.16 5.317.06.459-.003.557-.054.621l-.017.022c-.043.055-.076.13-.275.193a8.562 8.562 0 0 1-.168-.042c-.717-.188-1.284-.447-1.833-.716l-.596-.293c-.691-.34-1.388-.666-2.127-.907a25.038 25.038 0 0 0-4.844-1.07 1.988 1.988 0 0 1-.972-.37 1.464 1.464 0 0 1-.544-.827c-.116-.467-.082-.82.168-1.242.188-.316.458-.535.767-.661a1.798 1.798 0 0 1 1.031-.087Z" clip-rule="evenodd"/><path fill="#fff" fill-rule="evenodd" d="M102.133 106.046c1.493 0 2.104 3.478 2.104 3.478 3.798 6.551 7.454 13.083 13.976 17.59 7.241 2.903 14.362 7.846 22.612 8.388 3.72-.39 4.81-3.796 9.404-2.598 2.93.713 6.221 2.117 8.93.088 2.29-1.497 3.901-3.766 5.877-5.6.1-.331.756 3.161.558 4.342l-.153.67c-1.223 5.405-2.46 11.765-7.933 14.736-1.667.879-4.007 1.727-5.857 1.231-9.777 1.56-20.382.419-28.948-4.46-3.015-.784-5.258-3.189-7.633-5.007-5.808-5.089-12.464-11.536-13.084-19.267-.62-7.731-.344-13.591.147-13.591Zm29.54 15.266c3.328-5.346 9.94-4.478 15.084-2.042 2.842-1.931 6.592-1.575 9.675-.215l-.001.001c2.841 1.555 4.992 4.107 6.969 6.548.481.649.673 1.52-.004 1.84-3.187 2.628-9.809 1.086-12.815-.868-2.168-.175-1.692-3.254-4.195-1.099-1.67 1.57-3.768 2.544-6.047 3.121-5.095 1.75-9.786 1.459-14.223-1.268-.571-.056-2.909-1.379-2.078-1.85.903.244 5.91-2.63 7.635-4.168Z" clip-rule="evenodd"/><path fill="#000" fill-rule="evenodd" d="M101.355 111.793c.034-.281.47-.295.48 0 .202 6.185 2.216 12.967 5.621 18.263 8.183 13.367 24.886 20.063 40.963 17.763 11.748-.16 13.003-6.819 15.923-16.119 1.516-1.244 2.261-.799 1.79.661-3.62 11.221-4.86 17.657-19.182 17.535-22.998 3.284-47.938-15.527-45.595-38.103Zm32.491 4.988c3.752-1.676 8.217-1.439 11.351.878l.221.05c.549.123 1.075.216 1.692.153 8.293-4.367 13.83 3.25 18.082 8.953.321.011.582.263.495.558l.136.145c-.535 1.437-1.503 2.825-2.826 3.696-4.339 5.78-7.579 3.973-13.232 1.593-5.813-.87-6.048 5.984-14.157 2.844l-.306-.099c-2.668-.882-5.73-2.219-7.67-4.151-.063-.063-.001-.185.096-.153 4.499 1.357 10.285 5.788 14.866 2.803 1.158-.778 2.198-1.721 3.492-2.307 7.39-2.473 9.986 7.295 16.453-2.846-5.266.918-11.2.005-15.136-3.581-5.883 7.088-17.334 5.952-24.615 1.55-.996.143-2.469-.842-1.552-1.78 1.003-.798 2.59-.485 3.823-.918 3.936-1.401 4.865-5.866 8.787-7.388ZM147 119.745c-4.159-2.959-10.378-3.458-14.358.033-2.486 2.498-4.098 6.081-8.105 6.742 6.881 3.962 16.768 4.029 22.066-2.276.167-.545 1.029-.31 1.133.164 3.794 2.648 8.646 4.055 13.372 3.243a16.642 16.642 0 0 0 2.247-.531l-.697-.959c-3.709-5.076-8.479-10.987-15.552-6.812-.16.081-.228-.126-.248-.233l-.087.064c.063.131.584.563.229.565Zm17.029 8.814a.578.578 0 0 1 .087.1c.117-.06.237-.122.361-.181l-.033-.024c-.134.037-.273.072-.415.105Zm-62.139-24.441-.001-.203c0-2.042.548.532.795 1.039 1.058 1.906 1.944 3.793 3.065 5.652 4.498 8.095 5.194 11.603 14.256 16.214.674.577-.034 1.612-.87 1.399-1.251-.318-2.431-1.115-3.52-1.758-6.171-3.184-8.473-9.679-11.242-15.332-.813-2.242-2.689-4.633-2.483-7.011Z" clip-rule="evenodd"/><path fill="#000" fill-rule="evenodd" d="M170.723 102.353c-2.014 13.63-16.075 15.137-18.573 1.606.401-.175.689-.521.629-1.192-.014-2.95.901-6.066 3.56-7.706 2.748-1.692 5.963-1.86 9.143-1.817 6.068-.144 5.941 4.93 5.241 9.109m-20.774-5.928c-1.905-.08-4.314-.013-6.02 1.148-.469-1.263-1.687-2.612-2.919-3.334 4.577.134 9.288-.316 13.898-.666a8.79 8.79 0 0 0-2.798 3.19c-.619-.33-1.506-.3-2.161-.338m-8.394 7.373c-5.281 18.184-18.462 10.258-19.899 7.928-2.592-3.856-3.08-13.23-.822-15.737 3.232-2.267 7.807-1.683 11.625-1.739 7.015.095 11.996 2.194 9.096 9.548m35.403-8.363c-1.434-.188-2.968-.226-4.301.406-.411-1.746-1.701-3.206-3.156-3.849-.177-.22-.15-.34-.752-.306-3.696-1.112-7.832-.524-11.384.616-5.61.472-11.495.845-17.152 1.496-5.299-2.38-21.29-2.73-22.284 3.138-1.25-.187-3.379-1.17-4.429.164-7.705-1.307-15.667.51-23.406 1.318-1.947.36-2.95 4.227-.74 4.174 1.243-.338-.038-2.408 1.636-2.564 7.466-.816 14.769-1.973 22.312-2.109-.262 1.303 4.989 1.388 5.067.627.011.006.023.01.034.015-1.297 4.837-.126 11.8 2.219 14.8 3.286 3.928 11.535 5.055 15.192 2.527 4.718-2.332 9.627-14.041 8.248-17.932 2.502-.793 4.976-.555 7.573-.15-.595 1.68-1.621 5.815-.144 6.174-.271 8.211 7.198 13.334 14.084 9.966 5.961-2.799 8.045-11.659 7.316-17.036.742 1.434 6.971-.127 4.067-1.475" clip-rule="evenodd"/></svg>