<svg xmlns="http://www.w3.org/2000/svg" enable-background="new 0 0 50 50" viewBox="0 0 50 50"><path fill="#010101" d="M41.13803 9.32007c0 4.72998-3.67993 10.43994-8.26001 10.43994-4.56983 0-8.26001-5.70996-8.26001-10.43994C24.61801 4.73999 28.32797 1 32.87803 1S41.13803 4.73999 41.13803 9.32007zM46.43808 31.76001c-.29004-.05005-.58008-.07007-.87988-.07007-.90015 0-1.79004.19995-2.59009.58008l-3.20996 1.15991c-1.62012.59009-3.14014 1.15015-4 1.4502l-.40015-.03003c-.03003-.16016-.06982-.32007-.12988-.48022-1-2.71973-3.62012-4.53979-6.51001-4.53979h-3.75l-1.95996.02002c-1.79004 0-2.76001-.17017-3.57007-.65015.57007-1.69995 1.52002-3.26001 2.80005-4.5498 2.19995-2.22021 5.13989-3.4502 8.28003-3.4502h4.31983C40.82798 21.19995 45.83799 25.8501 46.43808 31.76001zM11.7081 26.95996V47c0 1.1001-.8999 2-2 2H2.49814c-1.1001 0-2-.8999-2-2V26.95996c0-1.09985.8999-2 2-2H9.7081C10.8082 24.95996 11.7081 25.86011 11.7081 26.95996z"/><path fill="#010101" d="M47.42807,40.79004l-9.11987,4.69995c-1.97021,1.02002-4.2002,1.56006-6.44019,1.56006H16.41806
			c-0.91992,0-1.83008-0.12012-2.70996-0.3501v-17.8999c2.23999,0.46997,3.71997,1.46997,4.36987,1.8999
			c0.08008,0.06006,0.14014,0.1001,0.18018,0.13013c1.35986,0.84985,2.81982,1.02002,4.75,1.02002
			c0.58361,0-2.11479,0.00904,5.70996-0.02002c2.11987,0,3.92993,1.34009,4.62988,3.22998
			c0.23999,0.6499-0.03003,1.37988-0.6499,1.68994c-3.56001,1.83904-6.25646-0.17016-6.42993,1.70996
			c-0.06006,0.55005,0.34985,1.04004,0.8999,1.1001c2.89474,0.27334,5.87468-0.19241,8.08008-2.12012
			c0.33984-0.28979,0.70996-0.51001,1.12988-0.65991c1.43018-0.51001,4.8501-1.76001,7.37012-2.66992
			c1.81948-0.90974,4.2048-0.31493,5.26001,1.52002C50.08507,37.5092,49.32919,39.80943,47.42807,40.79004z"/></svg>