<svg xmlns="http://www.w3.org/2000/svg" viewBox="0 0 48 48"><path d="M44.43,38.74,16.2,10.5a3.09,3.09,0,0,0-4.25,0l-1.41,1.42a3,3,0,0,0,0,4.24L38.78,44.4a3,3,0,0,0,2.12.87A3,3,0,0,0,43,44.4L44.43,43a3,3,0,0,0,0-4.24ZM12,13.33l1.42-1.41a1,1,0,0,1,1.41,0l1.42,1.41-2.83,2.83L12,14.75A1,1,0,0,1,12,13.33ZM43,41.57h0L41.6,43a1,1,0,0,1-1.41,0L14.78,17.58l2.83-2.83L43,40.15a1,1,0,0,1,0,1.42ZM7,19H9v2H7v2H5V21H3V19H5V17H7ZM19,7H17V5h2V3h2V5h2V7H21V9H19ZM5,7H2V5H5V2H7V5h3V7H7v3H5Z" data-name="18 Magic Wand, Magic Wand Selection, Magic Wand Tool"/></svg>