<svg xmlns="http://www.w3.org/2000/svg" data-name="flat final" viewBox="0 0 48 48"><path fill="#85c5dd" d="M9.617 5.302h11.699V9.71H9.617z"/><path fill="#95cfe1" d="M21.317 9.711v-3.4h-8.424a2.241 2.241 0 0 0-2.241 2.241v1.159Z"/><rect width="26.754" height="31.559" x="2.09" y="9.457" fill="#c1eafe" rx="4.076"/><path fill="#d2f0fb" d="M24.768 9.456H6.166a3.973 3.973 0 0 0-.44.045 4.041 4.041 0 0 0-.626 2.156v23.406a4.076 4.076 0 0 0 4.076 4.076h18.6a4 4 0 0 0 .44-.044 4.043 4.043 0 0 0 .629-2.156V13.533a4.076 4.076 0 0 0-4.077-4.077Z"/><path fill="#85c5dd" d="M2.09 17.637h26.754v16.708H2.09z"/><path fill="#95cfe1" d="M5.097 17.637h23.747v16.708H5.097z"/><path fill="#c1eafe" d="M6.934.75H24v4.807H6.934z"/><path fill="#d2f0fb" d="M10.925 4.421H24V.75H8.419v1.165a2.506 2.506 0 0 0 2.506 2.506Z"/><rect width="12.588" height="4.059" x="11.191" y="38.477" fill="#f5e17b" rx="2.029" transform="rotate(-21.704 17.486 40.506)"/><path fill="#f5e79a" d="M20.7 37.044 12.772 40.2a2.062 2.062 0 0 0-.493.283 2.02 2.02 0 0 0-.014 1.534A2.028 2.028 0 0 0 14.9 43.15L22.826 40a2.026 2.026 0 0 0 .493-.282 2.022 2.022 0 0 0 .014-1.535 2.03 2.03 0 0 0-2.633-1.139Z"/><path fill="#e75457" d="m20.7 37.044-3.962 1.577 1.5 3.771 3.962-1.577a2.029 2.029 0 0 0-1.5-3.771Z"/><path fill="#f06963" d="m20.7 37.044-3.962 1.577 1.3 3.28L22.826 40a2.026 2.026 0 0 0 .493-.282 2.029 2.029 0 0 0-2.622-2.67Z"/><rect width="12.588" height="4.059" x="21.796" y="43.191" fill="#f5e17b" rx="2.029"/><path fill="#f5e79a" d="M32.355 43.191h-8.53a2.016 2.016 0 0 0-.563.08 2.021 2.021 0 0 0-.58 1.42 2.029 2.029 0 0 0 2.029 2.03h8.529a2.005 2.005 0 0 0 .563-.08 2.022 2.022 0 0 0 .581-1.421 2.03 2.03 0 0 0-2.029-2.029Z"/><path fill="#e75457" d="M32.355 43.191H28.09v4.059h4.265a2.03 2.03 0 0 0 0-4.059Z"/><path fill="#f06963" d="M32.355 43.191H28.09v3.53h5.15a2.011 2.011 0 0 0 .563-.08 2.029 2.029 0 0 0-1.448-3.45Z"/><circle cx="42.202" cy="43.542" r="3.708" fill="#e5ae4c"/><circle cx="39.418" cy="33.554" r="3.708" fill="#e5ae4c"/><path fill="#e5b859" d="M44.987 41.094a3.709 3.709 0 0 0-3.926-1.08 3.532 3.532 0 0 0-.369.285 3.708 3.708 0 0 0 3.589 6.313 3.826 3.826 0 0 0 .369-.285 3.708 3.708 0 0 0 .337-5.233zM43.1 33.159a3.707 3.707 0 0 0-4.082-3.291 3.762 3.762 0 0 0-.749.159 3.709 3.709 0 0 0 3.226 6.6 3.705 3.705 0 0 0 1.605-3.468z"/><path fill="#e58332" d="M43.123 33.656a3.61 3.61 0 0 0-.019-.5 3.659 3.659 0 0 0-.088-.5l-7.3.794a3.729 3.729 0 0 0 .019.494 3.658 3.658 0 0 0 .088.495Z"/><path fill="#e59b43" d="M43.1 33.159a3.659 3.659 0 0 0-.088-.5l-6.36.691q0 .069.012.138a3.732 3.732 0 0 0 .192.841l6.264-.676a3.776 3.776 0 0 0-.02-.494Z"/><path fill="#c1eafe" d="M10.912 24.129h2.713v-2.713h3.684v2.713h2.713v3.684h-2.713v2.713h-3.684v-2.713h-2.713v-3.684z"/><path fill="#e58332" d="m44.626 40.737-5.514 4.853a3.72 3.72 0 0 0 .306.4 3.674 3.674 0 0 0 .354.352l5.516-4.855a3.724 3.724 0 0 0-.3-.393 3.575 3.575 0 0 0-.362-.357Z"/><path fill="#e59b43" d="M44.987 41.094a3.575 3.575 0 0 0-.361-.357L39.9 44.894a3.754 3.754 0 0 0 .451.638c.049.056.1.11.153.162l4.779-4.207a3.584 3.584 0 0 0-.296-.393Z"/><rect width="12.588" height="4.059" x="23.809" y="34.877" fill="#f5e17b" rx="2.029" transform="rotate(37.783 30.104 36.906)"/><path fill="#f5e79a" d="m34.717 37.915-6.741-5.226a2.031 2.031 0 0 0-.493-.282 2.028 2.028 0 0 0-1.33.767 2.031 2.031 0 0 0 .361 2.848l6.741 5.225a2.031 2.031 0 0 0 .493.282 2.02 2.02 0 0 0 1.33-.767 2.029 2.029 0 0 0-.361-2.847Z"/><path fill="#e75457" d="m34.717 37.915-3.37-2.615-2.487 3.21 3.37 2.613a2.03 2.03 0 1 0 2.487-3.208Z"/><path fill="#f06963" d="m34.717 37.915-3.37-2.615-2.163 2.79 4.071 3.155a2.031 2.031 0 0 0 .493.282 2.029 2.029 0 0 0 .969-3.614Z"/></svg>