<svg xmlns="http://www.w3.org/2000/svg" viewBox="0 0 64 64"><g fill="#ff6663"><path d="M7.17 37.36a4.266 4.266 0 0 0 5.99.61l6.31-5.15a4.248 4.248 0 0 0 1.39-4.5c-.16-.53-.42-1.04-.79-1.5l-.37-.45c-.37-.46-.82-.81-1.31-1.07a4.253 4.253 0 0 0-4.68.47l-2.89 2.36-3.42 2.79a4.266 4.266 0 0 0-.61 5.99l.38.45z"/><path d="M10.47 35.92c-.38 0-.74-.17-.98-.46l-.37-.45c-.44-.54-.36-1.33.18-1.77l6.31-5.15c.29-.23.59-.28.79-.28.13 0 .25.02.37.05.08.02.15.05.22.09.15.08.28.19.39.32l.37.45c.11.13.19.28.23.44.14.49-.02 1.01-.41 1.33l-6.31 5.15c-.28.24-.58.28-.79.28z"/><circle cx="13.44" cy="52.18" r="7.82" transform="rotate(-67.5 13.44 52.18)"/><circle cx="13.44" cy="52.18" r="4.82"/><path d="m49.83 22.92-2.54-.39v-9.22H35.55v9.22l-2.54.39a5.847 5.847 0 0 0-4.97 5.81v26.02c0 1.24 1.01 2.25 2.25 2.25h22.26c1.24 0 2.25-1.01 2.25-2.25V28.73c0-2.92-2.09-5.36-4.97-5.81zM47.29 10.29h2.84V7H32.71v3.29h2.84z"/></g><g fill="#542c2c"><path d="M60 58.5c.83 0 1.5.67 1.5 1.5s-.67 1.5-1.5 1.5H4c-.83 0-1.5-.67-1.5-1.5s.67-1.5 1.5-1.5h2.03a9.269 9.269 0 0 1-2.49-6.32c0-5.14 4.18-9.32 9.32-9.32s9.32 4.18 9.32 9.32c0 2.44-.95 4.66-2.49 6.32h4.99a6.693 6.693 0 0 1-1.14-3.75V28.73c0-.28.01-.55.04-.82l2.99.14c-.02.22-.03.45-.03.68v.05H56.3v-.05l2.99-.14c.01.05.01.09.01.14v5.63c0 .83-.67 1.5-1.5 1.5s-1.5-.67-1.5-1.5v-2.58H26.54v14.88H56.3v-.06c0-.83.67-1.5 1.5-1.5s1.5.67 1.5 1.5v8.15c0 1.39-.42 2.68-1.14 3.75H60zm-3.7-3.75v-5.09H26.54v5.09c0 2.07 1.68 3.75 3.75 3.75h22.26c2.07 0 3.75-1.68 3.75-3.75zM6.73 50.68h12.26c-.67-2.76-3.16-4.82-6.13-4.82s-5.46 2.06-6.13 4.82zm12.26 3H6.73c.67 2.76 3.16 4.82 6.13 4.82s5.46-2.06 6.13-4.82z"/><path d="M59.3 39.88v1.16c0 .83-.67 1.5-1.5 1.5s-1.5-.67-1.5-1.5v-1.16c0-.83.67-1.5 1.5-1.5s1.5.67 1.5 1.5zm-.01-11.29-2.99.14c0-3.66-2.63-6.73-6.24-7.29-.73-.11-1.27-.74-1.27-1.48v-5.17H34.05v5.17c0 .74-.54 1.37-1.27 1.48a7.34 7.34 0 0 0-6.21 6.61l-2.99-.14a10.31 10.31 0 0 1 7.47-9.16v-3.96h-.27c-1.42 0-2.57-1.16-2.57-2.57V5.07a2.57 2.57 0 0 1 2.57-2.57h21.28a2.57 2.57 0 0 1 2.57 2.57v7.15c0 1.41-1.15 2.57-2.57 2.57h-.27v3.96c4.38 1.25 7.45 5.19 7.5 9.84zm-7.66-16.8V5.5H31.21v6.29H51.63zm-5.87 25.93c.83 0 1.5.67 1.5 1.5s-.67 1.5-1.5 1.5h-2.84v2.84c0 .83-.67 1.5-1.5 1.5s-1.5-.67-1.5-1.5v-2.84h-2.84c-.83 0-1.5-.67-1.5-1.5s.67-1.5 1.5-1.5h2.84v-2.84c0-.83.67-1.5 1.5-1.5s1.5.67 1.5 1.5v2.84h2.84zM24.34 9.64v7.34c0 .83-.67 1.5-1.5 1.5s-1.5-.67-1.5-1.5V9.64c0-.82.67-1.5 1.5-1.5s1.5.68 1.5 1.5zm0-5.64v.72c0 .83-.67 1.5-1.5 1.5s-1.5-.67-1.5-1.5V4c0-.83.67-1.5 1.5-1.5s1.5.67 1.5 1.5zm-3.68 21.87a5.75 5.75 0 0 1-.82 8.1l-6.31 5.16a5.734 5.734 0 0 1-3.63 1.29c-.19 0-.39 0-.59-.03a5.69 5.69 0 0 1-3.88-2.08l-.37-.45a5.761 5.761 0 0 1 .82-8.11l6.31-5.15a5.76 5.76 0 0 1 8.1.82l.37.45zm-1.72 3.92c.08-.73-.14-1.45-.6-2.02l-.37-.45a2.762 2.762 0 0 0-2.14-1.02c-.62 0-1.23.21-1.75.62l-1.99 1.63 3.86 4.73 1.99-1.63c.58-.47.93-1.13 1-1.86zm-5.31 5.39-3.86-4.73-1.99 1.63c-.57.46-.93 1.12-1 1.86-.08.73.14 1.45.6 2.02l.37.45a2.763 2.763 0 0 0 3.89.39l1.99-1.62z"/></g></svg>