<svg xmlns="http://www.w3.org/2000/svg" viewBox="0 0 24 24"><g data-name="cloud"><path d="M17.34,7.27a3.27,3.27,0,0,0-.54,0,5.86,5.86,0,0,0-5.24-3.44A5.91,5.91,0,0,0,5.93,8.3a4,4,0,0,0-3.6,4.12A4,4,0,0,0,6,16.54h.72a1,1,0,0,0,0-2H6.07a2,2,0,0,1-1.74-2.12,2,2,0,0,1,1.85-2.13,1.19,1.19,0,0,1,.33,0,1,1,0,0,0,.78-.16,1,1,0,0,0,.42-.68,4,4,0,0,1,3.85-3.62A3.94,3.94,0,0,1,15.24,8.8a1,1,0,0,0,1.34.62,2,2,0,0,1,.76-.15,2.5,2.5,0,0,1,2.33,2.64,2.53,2.53,0,0,1-2.17,2.63h-.25a1,1,0,0,0,0,2h.13a4.5,4.5,0,0,0,4.33-4.64A4.5,4.5,0,0,0,17.34,7.27Z"/><path d="M16.17,13.58v-.05a.87.87,0,0,0-.1-.31v0a.92.92,0,0,0-.23-.29h0a1,1,0,0,0-.29-.17l-.05,0a1.26,1.26,0,0,0-.28,0h-.15a2.49,2.49,0,0,1-2.18-1.16l0-.05-.13-.15a.93.93,0,0,0-.15-.13l0,0-.12,0-.2-.07h-.37l-.2.07-.12,0,0,0a1.39,1.39,0,0,0-.28.28l0,0a2.63,2.63,0,0,1-2.22,1.18,1,1,0,0,0-1.12.94c0,.4,0,.82,0,1.26V15a5.36,5.36,0,0,0,4,5.35,1.07,1.07,0,0,0,.25,0,1,1,0,0,0,.24,0,5.39,5.39,0,0,0,4-5.32c0-.51,0-1,0-1.46Z"/></g></svg>