<svg xmlns="http://www.w3.org/2000/svg" width="28.996" height="22.994" viewBox="0 0 7.672 6.084"><path d="m 0.49609375,259 a 0.50004934,0.50004934 0 0 0 -0.49414062,0.49414 v 13.99609 a 0.50004934,0.50004934 0 0 0 0,0.008 V 277.5 a 0.50004934,0.50004934 0 0 0 0.49414062,0.50195 H 11.001953 v 2.9961 H 6.4980469 A 0.49999938,0.49999938 0 0 0 6.0039062,281.5 0.49999938,0.49999938 0 0 0 6.4980469,281.99414 H 22.501953 A 0.49999938,0.49999938 0 0 0 22.996094,281.5 0.49999938,0.49999938 0 0 0 22.501953,280.99805 h -4.503906 v -2.9961 h 10.505859 a 0.50004934,0.50004934 0 0 0 0.05859,-0.004 0.50004934,0.50004934 0 0 0 0.435547,-0.49805 v -4.00195 -14.00391 A 0.50004934,0.50004934 0 0 0 28.503906,259 Z m 0.50195313,0.99609 H 28.001953 v 13 H 0.99804688 Z M 2,260.49609 a 0.49999998,0.49999998 0 0 0 -0.5,0.5 0.49999998,0.49999998 0 0 0 0.5,0.5 0.49999998,0.49999998 0 0 0 0.5,-0.48632 0.49999998,0.49999998 0 0 0 0.5,0.48632 0.49999998,0.49999998 0 0 0 0.5,-0.48632 0.49999998,0.49999998 0 0 0 0.5,0.48632 0.49999998,0.49999998 0 0 0 0.5,-0.5 0.49999998,0.49999998 0 0 0 -0.5,-0.5 0.49999998,0.49999998 0 0 0 -0.5,0.48829 A 0.49999998,0.49999998 0 0 0 3,260.49609 0.49999998,0.49999998 0 0 0 2.5,260.98438 0.49999998,0.49999998 0 0 0 2,260.49609 Z m 4.4980469,0.004 a 0.49999938,0.49999938 0 0 0 -0.4941407,0.50195 0.49999938,0.49999938 0 0 0 0.4941407,0.49414 H 19.498047 A 0.49999938,0.49999938 0 0 0 20,261.00195 0.49999938,0.49999938 0 0 0 19.498047,260.5 Z m 15.0000001,0 a 0.49999938,0.49999938 0 0 0 -0.494141,0.50195 0.49999938,0.49999938 0 0 0 0.494141,0.49414 h 5.005859 A 0.49999938,0.49999938 0 0 0 26.998047,261.00195 0.49999938,0.49999938 0 0 0 26.503906,260.5 Z m -7.5,2.50195 c -2.202735,0 -4.0019408,1.79726 -4.0019532,4 -1.1e-5,2.20275 1.7992012,3.99414 4.0019532,3.99414 0.921766,0 1.761483,-0.32737 2.439453,-0.85351 l 1.708984,1.70898 a 0.49999938,0.49999938 0 0 0 0.708985,0 0.49999938,0.49999938 0 0 0 0,-0.70703 l -1.707031,-1.70898 c 0.525294,-0.67565 0.849613,-1.51411 0.849609,-2.4336 -1.3e-5,-2.20274 -1.797265,-4 -4,-4 z m 0,0.9961 c 1.662298,0 2.996084,1.34159 2.996094,3.0039 8e-6,1.66231 -1.333783,2.99805 -2.996094,2.99805 -1.662311,0 -2.996102,-1.33574 -2.996094,-2.99805 10e-6,-1.66231 1.333796,-3.0039 2.996094,-3.0039 z m -7.5000001,2 A 0.49999938,0.49999938 0 0 0 6.0039062,266.5 0.49999938,0.49999938 0 0 0 6.4980469,267.00195 H 9 A 0.49999938,0.49999938 0 0 0 9.5019531,266.5 0.49999938,0.49999938 0 0 0 9,265.99805 Z m 12.5058591,0 a 0.49999938,0.49999938 0 0 0 -0.501953,0.50195 0.49999938,0.49999938 0 0 0 0.501953,0.50195 h 2.494141 A 0.49999938,0.49999938 0 0 0 22,266.5 0.49999938,0.49999938 0 0 0 21.498047,265.99805 Z m -12.5058591,2 A 0.49999938,0.49999938 0 0 0 6.0039062,268.5 0.49999938,0.49999938 0 0 0 6.4980469,269.00391 H 9 A 0.49999938,0.49999938 0 0 0 9.5019531,268.5 0.49999938,0.49999938 0 0 0 9,267.99805 Z m 12.5058591,0 a 0.49999938,0.49999938 0 0 0 -0.501953,0.50195 0.49999938,0.49999938 0 0 0 0.501953,0.50391 h 2.494141 A 0.49999938,0.49999938 0 0 0 22,268.5 0.49999938,0.49999938 0 0 0 21.498047,267.99805 Z M 6.4980469,270 a 0.49999938,0.49999938 0 0 0 -0.4941407,0.50195 0.49999938,0.49999938 0 0 0 0.4941407,0.50196 H 9.9960938 A 0.49999938,0.49999938 0 0 0 10.498047,270.50195 0.49999938,0.49999938 0 0 0 9.9960938,270 Z m 12.5058591,0 a 0.49999938,0.49999938 0 0 0 -0.501953,0.50195 0.49999938,0.49999938 0 0 0 0.501953,0.50196 h 2.494141 A 0.49999938,0.49999938 0 0 0 22,270.50195 0.49999938,0.49999938 0 0 0 21.498047,270 Z M 0.99804688,274 H 28.001953 v 2.99805 H 11.503906 0.99804688 Z m 11.00000012,4.00195 h 5.003906 v 2.9961 h -5.003906 z" color="#000" font-family="sans-serif" font-weight="400" overflow="visible" transform="translate(0 -68.527) scale(.26458)" style="line-height:normal;font-variant-ligatures:normal;font-variant-position:normal;font-variant-caps:normal;font-variant-numeric:normal;font-variant-alternates:normal;font-variant-east-asian:normal;font-feature-settings:normal;font-variation-settings:normal;text-indent:0;text-align:start;text-decoration-line:none;text-decoration-style:solid;text-decoration-color:#000;text-transform:none;text-orientation:mixed;shape-padding:0;shape-margin:0;inline-size:0;isolation:auto;mix-blend-mode:normal"/></svg>